<svg xmlns="http://www.w3.org/2000/svg" viewBox="0 0 29 30">
  <ellipse cx="14.5" cy="15" rx="14.5" ry="15" fill="#fff200"/>
  <ellipse cx="13.5" cy="12.5" rx="1.5" ry="2" fill="#000"/>
  <path d="M2.6,8.251a12.1,12.1,0,0,0-1.776-.98C-.046,6.9-.7,7.286-.7,6.964c0-.173-.143-1.011.368-1.1A2.321,2.321,0,0,1,1.5,6.413,4.353,4.353,0,0,1,2.6,8.251Z" transform="translate(6.008 5.482)" fill="#000"/>
  <path d="M-36.932-14.205c-4.459.319-8.043-4.619-8.043-4.619s4.44,3.265,8.043,3.106,6.45-3.106,6.45-3.106S-32.472-14.524-36.932-14.205Z" transform="translate(48.432 37.236)" fill="#000"/>
  <path d="M6.027,14.612a2.115,2.115,0,0,1-1.187-.284,1.625,1.625,0,0,1-.47-1.015,4.7,4.7,0,0,0,.749.774A4.3,4.3,0,0,0,6.027,14.612Z" transform="translate(12.951 4.22)" fill="#000"/>
  <path d="M4.371,14.16a1.38,1.38,0,0,0,.775-.186,1.06,1.06,0,0,0,.307-.663,3.066,3.066,0,0,1-.489.505A2.807,2.807,0,0,1,4.371,14.16Z" transform="translate(-1.473 4.578)" fill="#000"/>
</svg>
